<?xml version="1.0" standalone="yes"?>

<svg version="1.1" viewBox="0.0 0.0 697.5853018372703 471.1049868766404" fill="none" stroke="none" stroke-linecap="square" stroke-miterlimit="10" xmlns="http://www.w3.org/2000/svg" xmlns:xlink="http://www.w3.org/1999/xlink"><clipPath id="p.0"><path d="m0 0l697.5853 0l0 471.10498l-697.5853 0l0 -471.10498z" clip-rule="nonzero"></path></clipPath><g clip-path="url(#p.0)"><path fill="#000000" fill-opacity="0.0" d="m0 0l697.5853 0l0 471.10498l-697.5853 0z" fill-rule="evenodd"></path><path fill="#000000" fill-opacity="0.0" d="m10.220472 8.328084l672.66144 0l0 448.15747l-672.66144 0z" fill-rule="evenodd"></path><path fill="#000000" d="m177.2387 123.41183q-4.0 0 -10.0625 -0.8125l-10.0625 -1.3125q-1.4375 18.187492 -1.4375 34.749992q0 4.375 0.25 10.8125q0.25 6.4375 0.25 10.8125q0 5.875 -0.4375 10.6875l19.6875 -0.25q2.625 0 4.40625 1.84375q1.78125 1.84375 1.78125 4.53125q0 2.75 -1.78125 4.59375q-1.78125 1.84375 -4.40625 1.84375q-3.5 0 -10.5 0.15625q-7.0 0.15625 -10.5 0.15625q-4.125 0 -12.34375 1.15625q-8.21875 1.15625 -12.40625 1.15625q-2.625 0 -4.40625 -1.84375q-1.78125 -1.84375 -1.78125 -4.53125q0 -2.6875 1.78125 -4.5625q1.78125 -1.875 4.40625 -1.875q4.0625 0 13.4375 -1.3125q0.625 -5.0625 0.625 -11.5625q0 -4.3125 -0.40625 -10.53125q-0.40625 -6.21875 -0.40625 -10.46875q0 -14.4375 1.75 -36.062492l-8.125 0.25l-8.125 0.1875q-2.6875 0 -4.5 -1.8125q-1.8125 -1.8125 -1.8125 -4.625q0 -5.8125 5.875 -6.375q5.0625 -0.5 18.9375 -0.5q12.4375 0 31.1875 2.6875q5.5625 0.8125 5.5625 6.6875q0 2.9375 -2.125 4.6875q-1.875 1.4375 -4.3125 1.4375zm66.75 82.31249q-5.375 0 -6.0625 -5.875l-1.75 -13.6875q-0.875 -7.3125 -0.875 -13.6875q0 -1.75 0.21875 -5.9375q0.21875 -4.1875 0.21875 -5.9375q0 -13.5 -5.0 -13.5q-7.0 0 -13.375 8.3125q-5.75 7.5625 -9.0 19.125q-0.125 2.4375 -0.5625 6.125q-0.375 3.125 -0.375 6.0625q0 1.875 0.375 5.625q0.375 3.75 0.375 5.625q0 2.8125 -1.71875 4.5625q-1.71875 1.75 -4.40625 1.75q-2.75 0 -4.4375 -1.75q-1.6875 -1.75 -1.6875 -4.5625q0 -1.875 -0.40625 -5.625q-0.40625 -3.75 -0.40625 -5.625q0 -6.4375 0.90625 -17.84375q0.90625 -11.40625 0.90625 -17.84375q0 -2.0 -0.21875 -5.9375q-0.21875 -3.9375 -0.21875 -5.9375q0 -2.6875 1.78125 -4.40625q1.78125 -1.71875 4.40625 -1.71875q5.75 0 6.3125 8.125l0.1875 7.3125q10.5 -14.0 21.5625 -14.0q10.0 0 13.9375 8.8125q2.6875 5.875 2.9375 17.375l0 6.3125l-0.0625 5.8125q0 5.1875 1.34375 13.40625q1.34375 8.21875 1.34375 13.34375q0 2.75 -1.78125 4.46875q-1.78125 1.71875 -4.46875 1.71875zm118.999985 -3.75q-2.375 0 -4.4375 -2.0q-20.6875 -20.4375 -46.0 -27.5l0.5 12.25l0.3125 12.3125q0 2.75 -1.78125 4.59375q-1.78125 1.84375 -4.46875 1.84375q-2.6875 0 -4.46875 -1.84375q-1.78125 -1.84375 -1.78125 -4.59375q0 -4.9375 -0.46875 -14.71875q-0.46875 -9.78125 -0.46875 -14.71875q0 -5.75 1.25 -17.125q1.25 -11.375 1.25 -17.0625q0 -3.1875 -0.59375 -9.437492q-0.59375 -6.25 -0.59375 -9.4375q0 -3.5625 2.0 -6.25q2.375 -3.3125 6.5625 -3.0l15.0625 1.1875q8.5625 1.0625 14.4375 4.1875q25.3125 13.4375 25.3125 32.812492q0 9.5 -8.625 16.8125q-6.9375 5.875 -17.3125 8.9375q19.4375 10.4375 29.0625 22.0q1.625 2.0 1.625 4.25q0 2.625 -1.90625 4.5625q-1.90625 1.9375 -4.46875 1.9375zm-39.8125 -82.62499l-9.25 -0.75l0.625 7.5625q0.4375 4.6249924 0.4375 7.5624924q0 5.0 -0.8125 12.4375l-1.3125 12.4375q0.875 0 2.71875 0.0625q1.84375 0.0625 2.78125 0.0625q15.9375 0 23.875 -4.25q3.5 -1.9375 6.5 -5.0625q3.3125 -3.5 3.3125 -5.9375q0 -8.6875 -9.875 -16.187492q-9.0625 -6.875 -19.0 -7.9375zm86.8125 85.87499q-12.8125 0 -21.375 -7.75q-9.0 -8.125 -9.0 -21.4375q0 -12.6875 8.4375 -26.1875q9.375 -15.0 21.125 -15.0q6.125 0 13.6875 2.875q9.5625 3.6875 9.5625 9.0q0 2.375 -1.5625 4.21875q-1.5625 1.84375 -3.875 1.84375q-1.8125 0 -3.15625 -1.09375q-1.34375 -1.09375 -2.59375 -2.15625q-3.6875 -2.9375 -12.0625 -2.9375q-6.375 0 -12.625 11.375q-5.6875 10.4375 -5.6875 18.0625q0 8.25 5.625 13.0q5.25 4.4375 13.5 4.4375q3.75 0 8.0 -2.0l7.25 -3.875q1.875 -1.0 2.6875 -1.0q2.3125 0 4.0 1.84375q1.6875 1.84375 1.6875 4.21875q0 4.5625 -9.625 8.8125q-8.4375 3.75 -14.0 3.75zm64.0625 -1.75q-6.25 0 -13.75 -2.0l-0.125 29.875q0 2.75 -1.71875 4.5q-1.71875 1.75 -4.40625 1.75q-2.6875 0 -4.40625 -1.75q-1.71875 -1.75 -1.71875 -4.5l0.1875 -25.0l0 -24.9375q-0.1875 -13.6875 -0.9375 -24.9375l-0.9375 -12.6875q0 -4.4375 1.625 -7.5q1.875 -3.6875 5.4375 -3.6875q2.4375 0 4.09375 1.71875q1.65625 1.71875 1.65625 4.21875q0 0.5625 -0.1875 2.0625q-0.3125 1.9375 -0.4375 3.5625q5.375 -3.6875 10.375 -5.53125q5.0 -1.84375 9.5625 -1.84375q12.8125 0 18.75 11.375q4.6875 9.0 4.6875 23.8125q0 13.5 -7.25 22.25q-7.6875 9.25 -20.5 9.25zm4.3125 -54.1875q-5.75 0 -10.375 2.5625q-3.3125 1.8125 -8.375 6.625q0.8125 14.1875 0.8125 29.8125q6.8125 2.625 13.625 2.625q7.8125 0 11.9375 -5.8125q3.5625 -5.0625 3.5625 -13.125q0 -11.375 -2.78125 -17.03125q-2.78125 -5.65625 -8.40625 -5.65625zm64.12497 54.1875q-6.25 0 -13.75 -2.0l-0.125 29.875q0 2.75 -1.71875 4.5q-1.71875 1.75 -4.40625 1.75q-2.687439 0 -4.406189 -1.75q-1.71875 -1.75 -1.71875 -4.5l0.1875 -25.0l0 -24.9375q-0.1875 -13.6875 -0.9375 -24.9375l-0.9375 -12.6875q0 -4.4375 1.625 -7.5q1.875 -3.6875 5.4375 -3.6875q2.437439 0 4.093689 1.71875q1.65625 1.71875 1.65625 4.21875q0 0.5625 -0.1875 2.0625q-0.3125 1.9375 -0.4375 3.5625q5.375 -3.6875 10.375 -5.53125q5.0 -1.84375 9.5625 -1.84375q12.8125 0 18.75 11.375q4.6875 9.0 4.6875 23.8125q0 13.5 -7.25 22.25q-7.6875 9.25 -20.5 9.25zm4.3125 -54.1875q-5.75 0 -10.375 2.5625q-3.3125 1.8125 -8.375 6.625q0.8125 14.1875 0.8125 29.8125q6.8125 2.625 13.625 2.625q7.8125 0 11.9375 -5.8125q3.5625 -5.0625 3.5625 -13.125q0 -11.375 -2.78125 -17.03125q-2.78125 -5.65625 -8.40625 -5.65625z" fill-rule="nonzero"></path><path fill="#000000" d="m176.58244 299.34933q-4.875 20.375 -12.75 46.0625q-1.75 5.6875 -5.8125 11.6875q-2.1875 3.3125 -5.9375 3.25q-6.8125 -0.125 -10.625 -16.9375q-1.25 -5.375 -2.5625 -14.625l-2.0625 -13.9375l-5.125 11.9375l-9.5 25.8125q-0.8125 2.375 -2.375 3.625q-1.875 3.625 -6.0 3.75q-4.75 0.1875 -9.1875 -18.625q-2.25 -9.6875 -4.5 -26.25l-1.5 -9.375q-0.8125 -5.625 -0.8125 -9.4375q0 -2.625 1.84375 -4.34375q1.84375 -1.71875 4.46875 -1.71875q4.75 0 5.875 5.1875q0.8125 3.6875 1.3125 9.125l0.9375 9.1875l3.6875 28.0625q6.9375 -19.25 14.375 -44.375q2.0625 -6.9375 7.1875 -6.9375q4.9375 0 6.6875 7.75q1.625 7.3125 4.0625 22.5q2.5 15.75 4.4375 24.5625l4.5625 -17.0l8.0625 -34.0625q0.9375 -3.8125 5.375 -3.8125q2.625 0 4.5625 1.78125q1.9375 1.78125 1.9375 4.28125q0 0.3125 -0.625 2.875zm41.9375 58.8125q-14.125 0 -22.875 -7.0625q-9.5625 -7.8125 -9.5625 -21.875q0 -16.25 7.875 -27.25q8.5625 -12.0 22.875 -12.0q10.375 0 16.9375 3.5q8.0625 4.3125 8.0625 13.25q0 6.25 -7.0625 11.375q-3.125 2.25 -13.25 7.0l-23.875 11.3125q3.5 5.1875 8.71875 7.8125q5.21875 2.625 12.15625 2.625q4.3125 0 10.125 -1.625q7.375 -2.0625 9.5 -5.40625q2.125 -3.34375 4.5625 -3.34375q2.1875 0 3.90625 1.65625q1.71875 1.65625 1.71875 3.84375q0 6.9375 -11.1875 11.9375q-9.5625 4.25 -18.625 4.25zm-1.6875 -56.9375q-7.625 0 -12.6875 5.90625q-5.0625 5.90625 -7.5625 17.78125l19.1875 -9.125q11.3125 -5.5 16.125 -9.5625q-5.375 -5.0 -15.0625 -5.0zm122.687485 0.8125q-1.3125 0 -3.09375 -0.125q-1.78125 -0.125 -3.09375 -0.125q-1.4375 0 -8.5 0.9375l1.1875 36.9375l0.0625 2.75l0.0625 3.1875q0.25 13.6875 -6.5625 13.6875q-2.5 0 -4.34375 -1.625q-1.84375 -1.625 -1.84375 -4.0625q0 -2.375 0.1875 -7.125q0.1875 -4.75 0.1875 -7.125l-1.25 -36.5q-4.5625 -0.1875 -13.875 -1.0625q-5.5625 -0.75 -5.5625 -6.1875q0 -2.75 1.6875 -4.5625q1.6875 -1.8125 4.3125 -1.8125l13.125 1.0625q0 -3.1875 -0.28125 -8.53125q-0.28125 -5.34375 -0.28125 -7.71875q0 -2.625 1.8125 -4.34375q1.8125 -1.71875 4.4375 -1.71875q5.625 0 6.5625 9.1875q0.1875 2.3125 0.1875 5.5625l-0.125 3.625l-0.0625 3.875q7.75 -1.0 8.875 -1.0q6.5 0 8.5 0.625q3.8125 1.25 3.8125 5.875q0 2.75 -1.71875 4.53125q-1.71875 1.78125 -4.40625 1.78125zm67.125 7.0625q-0.4375 7.8125 -6.25 7.8125q-5.375 0 -5.375 -6.1875q0 -1.1875 -0.1875 -4.375l-0.1875 -5.25q-9.875 1.1875 -15.8125 5.5625q-5.5625 4.0625 -9.25 12.25l0.125 34.25q0 6.3125 -6.1875 6.3125q-5.5 0 -5.5 -6.3125l0 -43.875q0 -2.0625 0.15625 -6.1875q0.15625 -4.125 0.15625 -6.1875q0 -6.3125 5.5 -6.3125q6.125 0 6.1875 10.375q12.0 -11.5625 26.625 -11.5625q5.0625 0 7.5625 3.8125q2.5 3.8125 2.5 11.5q0 3.25 -0.0625 4.375zm63.875 9.6875q0 4.5 0.0625 13.5q0.0625 9.0 0.0625 13.5q0 1.375 0.21875 4.1875q0.21875 2.8125 0.21875 4.1875q0 2.6875 -1.8125 4.40625q-1.8125 1.71875 -4.4375 1.71875q-4.8125 0 -6.125 -5.9375q-7.8125 4.0625 -18.0 4.0625q-8.1875 0 -13.5625 -3.625q-5.9375 -4.0 -7.0625 -11.6875q-2.4375 -16.5625 -2.4375 -29.5q0 -8.5625 1.875 -19.5q0.875 -5.4375 5.9375 -5.4375q2.6875 0 4.5 1.71875q1.8125 1.71875 1.8125 4.40625q0 2.875 -0.90625 9.1875q-0.90625 6.3125 -0.90625 9.625q0 10.4375 0.6875 17.875q0.6875 7.4375 2.0625 11.9375q2.0625 1.125 4.0625 1.71875q2.0 0.59375 3.9375 0.59375q8.375 0 17.6875 -2.6875l-0.0625 -12.6875l-0.125 -12.125q0 -13.5 1.1875 -23.4375q0.6875 -5.75 6.0625 -5.75q2.6875 0 4.5 1.75q1.8125 1.75 1.6875 4.375l-1.125 23.625zm57.74997 -11.625q-3.4375 0 -4.8125 -2.3125q-0.9375 -1.625 -1.624939 -6.75q-4.6875 1.1875 -14.4375305 4.375q-10.0625 4.0 -10.125 9.875q1.875 0.6875 3.6875 1.0q14.3750305 2.5625 21.37497 7.0625q10.1875 6.5625 10.1875 19.0q0 10.1875 -8.8125 15.375q-7.312439 4.25 -18.49997 4.25q-8.1875 0 -15.625 -2.75q-9.625 -3.5 -9.625 -9.75q0 -2.5 1.96875 -4.375q1.96875 -1.875 4.46875 -1.875q1.9375 0 5.0 3.0q1.5 1.4375 6.75 2.375q4.1875 0.75 7.0625 0.75q5.25 0 9.2500305 -1.25q5.8125 -1.8125 5.8125 -5.75q0 -8.5 -11.8750305 -11.5l-6.5 -1.4375q-8.3125 -1.8125 -11.8125 -4.25q-5.0625 -3.5 -5.0625 -10.5625q0 -13.0625 12.3125 -18.625q3.75 -1.6875 12.0 -4.03125q8.2500305 -2.34375 11.8125305 -3.96875q2.562439 -1.125 5.562439 -1.125q2.6875 0 4.40625 1.75q1.71875 1.75 1.71875 4.5625q0 1.8125 0.78125 5.3125q0.78125 3.5 0.78125 5.3125q0 2.8125 -1.71875 4.5625q-1.71875 1.75 -4.40625 1.75zm61.9375 -5.125q-1.3125 0 -3.09375 -0.125q-1.78125 -0.125 -3.09375 -0.125q-1.4375 0 -8.5 0.9375l1.1875 36.9375l0.0625 2.75l0.0625 3.1875q0.25 13.6875 -6.5625 13.6875q-2.5 0 -4.34375 -1.625q-1.84375 -1.625 -1.84375 -4.0625q0 -2.375 0.1875 -7.125q0.1875 -4.75 0.1875 -7.125l-1.25 -36.5q-4.5625 -0.1875 -13.875 -1.0625q-5.5625 -0.75 -5.5625 -6.1875q0 -2.75 1.6875 -4.5625q1.6875 -1.8125 4.3125 -1.8125l13.125 1.0625q0 -3.1875 -0.28125 -8.53125q-0.28125 -5.34375 -0.28125 -7.71875q0 -2.625 1.8125 -4.34375q1.8125 -1.71875 4.4375 -1.71875q5.625 0 6.5625 9.1875q0.1875 2.3125 0.1875 5.5625l-0.125 3.625l-0.0625 3.875q7.75 -1.0 8.875 -1.0q6.5 0 8.5 0.625q3.8125 1.25 3.8125 5.875q0 2.75 -1.71875 4.53125q-1.71875 1.78125 -4.40625 1.78125z" fill-rule="nonzero"></path></g></svg>

