<?xml version="1.0" standalone="yes"?>

<svg version="1.1" viewBox="0.0 0.0 856.2729658792651 401.49081364829397" fill="none" stroke="none" stroke-linecap="square" stroke-miterlimit="10" xmlns="http://www.w3.org/2000/svg" xmlns:xlink="http://www.w3.org/1999/xlink"><clipPath id="p.0"><path d="m0 0l856.27295 0l0 401.4908l-856.27295 0l0 -401.4908z" clip-rule="nonzero"></path></clipPath><g clip-path="url(#p.0)"><path fill="#000000" fill-opacity="0.0" d="m0 0l856.27295 0l0 401.4908l-856.27295 0z" fill-rule="evenodd"></path><path fill="#000000" fill-opacity="0.0" d="m12.87664 51.5021l0 0c0 -21.828005 17.695095 -39.523098 39.5231 -39.523098l554.0562 0c10.482178 0 20.534973 4.164029 27.947021 11.576047c7.4120483 7.4120197 11.57605 17.464874 11.57605 27.947052l0 158.08766c0 21.828003 -17.695068 39.523087 -39.52307 39.523087l-554.0562 0l0 0c-21.828007 0 -39.5231 -17.695084 -39.5231 -39.523087z" fill-rule="evenodd"></path><path stroke="#000000" stroke-width="1.0" stroke-linejoin="round" stroke-linecap="butt" d="m12.87664 51.5021l0 0c0 -21.828005 17.695095 -39.523098 39.5231 -39.523098l554.0562 0c10.482178 0 20.534973 4.164029 27.947021 11.576047c7.4120483 7.4120197 11.57605 17.464874 11.57605 27.947052l0 158.08766c0 21.828003 -17.695068 39.523087 -39.52307 39.523087l-554.0562 0l0 0c-21.828007 0 -39.5231 -17.695084 -39.5231 -39.523087z" fill-rule="evenodd"></path><path fill="#000000" d="m268.41998 137.46593l0 -1.90625l1.90625 0l0 1.90625l-1.90625 0zm10.366608 0l0 -1.90625l1.9062805 0l0 1.90625l-1.9062805 0zm10.366608 0l0 -1.90625l1.90625 0l0 1.90625l-1.90625 0zm10.366638 0l0 -1.90625l1.90625 0l0 1.90625l-1.90625 0zm10.366577 0l0 -1.90625l1.90625 0l0 1.90625l-1.90625 0zm10.366577 0l0 -1.90625l1.90625 0l0 1.90625l-1.90625 0zm10.366577 0l0 -1.90625l1.90625 0l0 1.90625l-1.90625 0zm10.366577 0l0 -1.90625l1.90625 0l0 1.90625l-1.90625 0zm10.366577 0l0 -1.90625l1.90625 0l0 1.90625l-1.90625 0zm10.366577 0l0 -1.90625l1.90625 0l0 1.90625l-1.90625 0zm10.366577 0l0 -1.90625l1.90625 0l0 1.90625l-1.90625 0zm10.366577 0l0 -1.90625l1.90625 0l0 1.90625l-1.90625 0zm10.366577 0l0 -1.90625l1.90625 0l0 1.90625l-1.90625 0zm10.366577 0l0 -1.90625l1.90625 0l0 1.90625l-1.90625 0zm10.366577 0l0 -1.90625l1.90625 0l0 1.90625l-1.90625 0zm10.366577 0l0 -1.90625l1.90625 0l0 1.90625l-1.90625 0zm10.366577 0l0 -1.90625l1.90625 0l0 1.90625l-1.90625 0zm10.366577 0l0 -1.90625l1.90625 0l0 1.90625l-1.90625 0zm10.366577 0l0 -1.90625l1.90625 0l0 1.90625l-1.90625 0zm10.366577 0l0 -1.90625l1.90625 0l0 1.90625l-1.90625 0zm10.366577 0l0 -1.90625l1.90625 0l0 1.90625l-1.90625 0zm10.366577 0l0 -1.90625l1.90625 0l0 1.90625l-1.90625 0zm10.366577 0l0 -1.90625l1.90625 0l0 1.90625l-1.90625 0z" fill-rule="nonzero"></path><path fill="#cfe2f3" d="m27.897638 52.92947l0 0c0 -9.283207 7.525526 -16.808735 16.808733 -16.808735l67.232925 0l0 0c4.4579544 0 8.733322 1.770916 11.885574 4.9231644c3.1522522 3.1522484 4.9231644 7.427616 4.9231644 11.885571l0 155.23293c0 9.283203 -7.525528 16.808731 -16.808739 16.808731l-67.232925 0c-9.283207 0 -16.808733 -7.525528 -16.808733 -16.808731z" fill-rule="evenodd"></path><path stroke="#000000" stroke-width="1.0" stroke-linejoin="round" stroke-linecap="butt" d="m27.897638 52.92947l0 0c0 -9.283207 7.525526 -16.808735 16.808733 -16.808735l67.232925 0l0 0c4.4579544 0 8.733322 1.770916 11.885574 4.9231644c3.1522522 3.1522484 4.9231644 7.427616 4.9231644 11.885571l0 155.23293c0 9.283203 -7.525528 16.808731 -16.808739 16.808731l-67.232925 0c-9.283207 0 -16.808733 -7.525528 -16.808733 -16.808731z" fill-rule="evenodd"></path><path fill="#000000" d="m58.713223 62.843845l-1.140625 0l0 -7.28125q-0.421875 0.390625 -1.09375 0.796875q-0.65625 0.390625 -1.1875 0.578125l0 -1.109375q0.953125 -0.4375 1.671875 -1.078125q0.71875 -0.640625 1.015625 -1.25l0.734375 0l0 9.34375zm6.677967 -2.796875l0 -1.140625l3.515625 0l0 1.140625l-3.515625 0zm12.578857 2.796875l-1.140625 0l0 -7.28125q-0.421875 0.390625 -1.09375 0.796875q-0.65625 0.390625 -1.1875 0.578125l0 -1.109375q0.953125 -0.4375 1.671875 -1.078125q0.71875 -0.640625 1.015625 -1.25l0.734375 0l0 9.34375zm3.1156006 -4.59375q0 -1.640625 0.328125 -2.640625q0.34375 -1.015625 1.015625 -1.5625q0.671875 -0.546875 1.6875 -0.546875q0.75 0 1.3125 0.3125q0.5625 0.296875 0.921875 0.859375q0.375 0.5625 0.578125 1.390625q0.21875 0.8125 0.21875 2.1875q0 1.640625 -0.34375 2.65625q-0.328125 1.0 -1.0 1.546875q-0.671875 0.546875 -1.6875 0.546875q-1.34375 0 -2.125 -0.96875q-0.90625 -1.15625 -0.90625 -3.78125zm1.171875 0q0 2.296875 0.53125 3.0625q0.53125 0.75 1.328125 0.75q0.78125 0 1.3125 -0.75q0.546875 -0.765625 0.546875 -3.0625q0 -2.296875 -0.546875 -3.046875q-0.53125 -0.75 -1.328125 -0.75q-0.78125 0 -1.265625 0.65625q-0.578125 0.859375 -0.578125 3.140625zm6.2406006 0q0 -1.640625 0.328125 -2.640625q0.34375 -1.015625 1.015625 -1.5625q0.671875 -0.546875 1.6875 -0.546875q0.75 0 1.3125 0.3125q0.5625 0.296875 0.921875 0.859375q0.375 0.5625 0.578125 1.390625q0.21875 0.8125 0.21875 2.1875q0 1.640625 -0.34375 2.65625q-0.328125 1.0 -1.0 1.546875q-0.671875 0.546875 -1.6875 0.546875q-1.34375 0 -2.125 -0.96875q-0.90625 -1.15625 -0.90625 -3.78125zm1.171875 0q0 2.296875 0.53125 3.0625q0.53125 0.75 1.328125 0.75q0.78125 0 1.3125 -0.75q0.546875 -0.765625 0.546875 -3.0625q0 -2.296875 -0.546875 -3.046875q-0.53125 -0.75 -1.328125 -0.75q-0.78125 0 -1.265625 0.65625q-0.578125 0.859375 -0.578125 3.140625zm6.2406006 0q0 -1.640625 0.328125 -2.640625q0.34375 -1.015625 1.0156174 -1.5625q0.671875 -0.546875 1.6875 -0.546875q0.75 0 1.3125 0.3125q0.5625 0.296875 0.921875 0.859375q0.375 0.5625 0.578125 1.390625q0.21875 0.8125 0.21875 2.1875q0 1.640625 -0.34375 2.65625q-0.328125 1.0 -1.0 1.546875q-0.671875 0.546875 -1.6875 0.546875q-1.34375 0 -2.1249924 -0.96875q-0.90625 -1.15625 -0.90625 -3.78125zm1.1718674 0q0 2.296875 0.53125 3.0625q0.53125 0.75 1.328125 0.75q0.78125 0 1.3125 -0.75q0.546875 -0.765625 0.546875 -3.0625q0 -2.296875 -0.546875 -3.046875q-0.53125 -0.75 -1.328125 -0.75q-0.78125 0 -1.265625 0.65625q-0.578125 0.859375 -0.578125 3.140625z" fill-rule="nonzero"></path><path fill="#cfe2f3" d="m140.46982 52.92947l0 0c0 -9.283207 7.525528 -16.808735 16.808731 -16.808735l67.232925 0l0 0c4.457947 0 8.733322 1.770916 11.885574 4.9231644c3.1522522 3.1522484 4.9231567 7.427616 4.9231567 11.885571l0 155.23293c0 9.283203 -7.525528 16.808731 -16.808731 16.808731l-67.232925 0c-9.283203 0 -16.808731 -7.525528 -16.808731 -16.808731z" fill-rule="evenodd"></path><path stroke="#000000" stroke-width="1.0" stroke-linejoin="round" stroke-linecap="butt" d="m140.46982 52.92947l0 0c0 -9.283207 7.525528 -16.808735 16.808731 -16.808735l67.232925 0l0 0c4.457947 0 8.733322 1.770916 11.885574 4.9231644c3.1522522 3.1522484 4.9231567 7.427616 4.9231567 11.885571l0 155.23293c0 9.283203 -7.525528 16.808731 -16.808731 16.808731l-67.232925 0c-9.283203 0 -16.808731 -7.525528 -16.808731 -16.808731z" fill-rule="evenodd"></path><path fill="#000000" d="m160.16669 62.843845l-1.140625 0l0 -7.28125q-0.421875 0.390625 -1.09375 0.796875q-0.65625 0.390625 -1.1875 0.578125l0 -1.109375q0.953125 -0.4375 1.671875 -1.078125q0.71875 -0.640625 1.015625 -1.25l0.734375 0l0 9.34375zm3.1156006 -4.59375q0 -1.640625 0.328125 -2.640625q0.34375 -1.015625 1.015625 -1.5625q0.671875 -0.546875 1.6875 -0.546875q0.75 0 1.3125 0.3125q0.5625 0.296875 0.921875 0.859375q0.375 0.5625 0.578125 1.390625q0.21875 0.8125 0.21875 2.1875q0 1.640625 -0.34375 2.65625q-0.328125 1.0 -1.0 1.546875q-0.671875 0.546875 -1.6875 0.546875q-1.34375 0 -2.125 -0.96875q-0.90625 -1.15625 -0.90625 -3.78125zm1.171875 0q0 2.296875 0.53125 3.0625q0.53125 0.75 1.328125 0.75q0.78125 0 1.3125 -0.75q0.546875 -0.765625 0.546875 -3.0625q0 -2.296875 -0.546875 -3.046875q-0.53125 -0.75 -1.328125 -0.75q-0.78125 0 -1.265625 0.65625q-0.578125 0.859375 -0.578125 3.140625zm6.2406006 0q0 -1.640625 0.328125 -2.640625q0.34375 -1.015625 1.015625 -1.5625q0.671875 -0.546875 1.6875 -0.546875q0.75 0 1.3125 0.3125q0.5625 0.296875 0.921875 0.859375q0.375 0.5625 0.578125 1.390625q0.21875 0.8125 0.21875 2.1875q0 1.640625 -0.34375 2.65625q-0.328125 1.0 -1.0 1.546875q-0.671875 0.546875 -1.6875 0.546875q-1.34375 0 -2.125 -0.96875q-0.90625 -1.15625 -0.90625 -3.78125zm1.171875 0q0 2.296875 0.53125 3.0625q0.53125 0.75 1.328125 0.75q0.78125 0 1.3125 -0.75q0.546875 -0.765625 0.546875 -3.0625q0 -2.296875 -0.546875 -3.046875q-0.53125 -0.75 -1.328125 -0.75q-0.78125 0 -1.265625 0.65625q-0.578125 0.859375 -0.578125 3.140625zm10.537476 4.59375l-1.140625 0l0 -7.28125q-0.421875 0.390625 -1.09375 0.796875q-0.65625 0.390625 -1.1875 0.578125l0 -1.109375q0.953125 -0.4375 1.671875 -1.078125q0.71875 -0.640625 1.015625 -1.25l0.734375 0l0 9.34375zm6.6779633 -2.796875l0 -1.140625l3.515625 0l0 1.140625l-3.515625 0zm14.281982 1.703125l0 1.09375l-6.15625 0q-0.015625 -0.40625 0.140625 -0.796875q0.234375 -0.625 0.75 -1.234375q0.515625 -0.609375 1.5 -1.40625q1.515625 -1.25 2.046875 -1.96875q0.53125 -0.734375 0.53125 -1.375q0 -0.6875 -0.484375 -1.140625q-0.484375 -0.46875 -1.265625 -0.46875q-0.828125 0 -1.328125 0.5q-0.484375 0.484375 -0.5 1.359375l-1.171875 -0.125q0.125 -1.3125 0.90625 -2.0q0.78125 -0.6875 2.109375 -0.6875q1.34375 0 2.125 0.75q0.78125 0.734375 0.78125 1.828125q0 0.5625 -0.234375 1.109375q-0.21875 0.53125 -0.75 1.140625q-0.53125 0.59375 -1.765625 1.625q-1.03125 0.859375 -1.328125 1.171875q-0.28125 0.3125 -0.46875 0.625l4.5625 0zm1.4124756 -3.5q0 -1.640625 0.328125 -2.640625q0.34375 -1.015625 1.015625 -1.5625q0.671875 -0.546875 1.6875 -0.546875q0.75 0 1.3125 0.3125q0.5625 0.296875 0.921875 0.859375q0.375 0.5625 0.578125 1.390625q0.21875 0.8125 0.21875 2.1875q0 1.640625 -0.34375 2.65625q-0.328125 1.0 -1.0 1.546875q-0.671875 0.546875 -1.6875 0.546875q-1.34375 0 -2.125 -0.96875q-0.90625 -1.15625 -0.90625 -3.78125zm1.171875 0q0 2.296875 0.53125 3.0625q0.53125 0.75 1.328125 0.75q0.78125 0 1.3125 -0.75q0.546875 -0.765625 0.546875 -3.0625q0 -2.296875 -0.546875 -3.046875q-0.53125 -0.75 -1.328125 -0.75q-0.78125 0 -1.265625 0.65625q-0.578125 0.859375 -0.578125 3.140625zm6.2406006 0q0 -1.640625 0.328125 -2.640625q0.34375 -1.015625 1.015625 -1.5625q0.671875 -0.546875 1.6875 -0.546875q0.75 0 1.3125 0.3125q0.5625 0.296875 0.921875 0.859375q0.375 0.5625 0.578125 1.390625q0.21875 0.8125 0.21875 2.1875q0 1.640625 -0.34375 2.65625q-0.328125 1.0 -1.0 1.546875q-0.671875 0.546875 -1.6875 0.546875q-1.34375 0 -2.125 -0.96875q-0.90625 -1.15625 -0.90625 -3.78125zm1.171875 0q0 2.296875 0.53125 3.0625q0.53125 0.75 1.328125 0.75q0.78125 0 1.3125 -0.75q0.546875 -0.765625 0.546875 -3.0625q0 -2.296875 -0.546875 -3.046875q-0.53125 -0.75 -1.328125 -0.75q-0.78125 0 -1.265625 0.65625q-0.578125 0.859375 -0.578125 3.140625zm6.2406006 0q0 -1.640625 0.328125 -2.640625q0.34375 -1.015625 1.015625 -1.5625q0.671875 -0.546875 1.6875 -0.546875q0.75 0 1.3125 0.3125q0.5625 0.296875 0.921875 0.859375q0.375 0.5625 0.578125 1.390625q0.21875 0.8125 0.21875 2.1875q0 1.640625 -0.34375 2.65625q-0.328125 1.0 -1.0 1.546875q-0.671875 0.546875 -1.6875 0.546875q-1.34375 0 -2.125 -0.96875q-0.90625 -1.15625 -0.90625 -3.78125zm1.171875 0q0 2.296875 0.53125 3.0625q0.53125 0.75 1.328125 0.75q0.78125 0 1.3125 -0.75q0.546875 -0.765625 0.546875 -3.0625q0 -2.296875 -0.546875 -3.046875q-0.53125 -0.75 -1.328125 -0.75q-0.78125 0 -1.265625 0.65625q-0.578125 0.859375 -0.578125 3.140625z" fill-rule="nonzero"></path><path fill="#cfe2f3" d="m526.66144 52.92947l0 0c0 -9.283207 7.5255127 -16.808735 16.808716 -16.808735l67.23291 0l0 0c4.457947 0 8.733337 1.770916 11.885559 4.9231644c3.1522827 3.1522484 4.923218 7.427616 4.923218 11.885571l0 155.23293c0 9.283203 -7.5255737 16.808731 -16.808777 16.808731l-67.23291 0c-9.283203 0 -16.808716 -7.525528 -16.808716 -16.808731z" fill-rule="evenodd"></path><path stroke="#000000" stroke-width="1.0" stroke-linejoin="round" stroke-linecap="butt" d="m526.66144 52.92947l0 0c0 -9.283207 7.5255127 -16.808735 16.808716 -16.808735l67.23291 0l0 0c4.457947 0 8.733337 1.770916 11.885559 4.9231644c3.1522827 3.1522484 4.923218 7.427616 4.923218 11.885571l0 155.23293c0 9.283203 -7.5255737 16.808731 -16.808777 16.808731l-67.23291 0c-9.283203 0 -16.808716 -7.525528 -16.808716 -16.808731z" fill-rule="evenodd"></path><path fill="#cfe2f3" d="m27.897638 331.29208l0 0c0 -3.5804749 2.9025688 -6.4830627 6.4830685 -6.4830627l87.884254 0c1.7194214 0 3.3684082 0.68304443 4.584221 1.8988647c1.2158203 1.2157898 1.8988495 2.8648071 1.8988495 4.584198l0 25.931519c0 3.5805054 -2.9025726 6.4830627 -6.4830704 6.4830627l-87.884254 0l0 0c-3.5804996 0 -6.4830685 -2.9025574 -6.4830685 -6.4830627z" fill-rule="evenodd"></path><path stroke="#000000" stroke-width="1.0" stroke-linejoin="round" stroke-linecap="butt" d="m27.897638 331.29208l0 0c0 -3.5804749 2.9025688 -6.4830627 6.4830685 -6.4830627l87.884254 0c1.7194214 0 3.3684082 0.68304443 4.584221 1.8988647c1.2158203 1.2157898 1.8988495 2.8648071 1.8988495 4.584198l0 25.931519c0 3.5805054 -2.9025726 6.4830627 -6.4830704 6.4830627l-87.884254 0l0 0c-3.5804996 0 -6.4830685 -2.9025574 -6.4830685 -6.4830627z" fill-rule="evenodd"></path><path fill="#cfe2f3" d="m140.46982 331.29208l0 0c0 -3.5804749 2.9025726 -6.4830627 6.4830627 -6.4830627l87.88426 0c1.7194214 0 3.3684082 0.68304443 4.5842133 1.8988647c1.2158203 1.2157898 1.8988495 2.8648071 1.8988495 4.584198l0 25.931519c0 3.5805054 -2.9025574 6.4830627 -6.4830627 6.4830627l-87.88426 0l0 0c-3.58049 0 -6.4830627 -2.9025574 -6.4830627 -6.4830627z" fill-rule="evenodd"></path><path stroke="#000000" stroke-width="1.0" stroke-linejoin="round" stroke-linecap="butt" d="m140.46982 331.29208l0 0c0 -3.5804749 2.9025726 -6.4830627 6.4830627 -6.4830627l87.88426 0c1.7194214 0 3.3684082 0.68304443 4.5842133 1.8988647c1.2158203 1.2157898 1.8988495 2.8648071 1.8988495 4.584198l0 25.931519c0 3.5805054 -2.9025574 6.4830627 -6.4830627 6.4830627l-87.88426 0l0 0c-3.58049 0 -6.4830627 -2.9025574 -6.4830627 -6.4830627z" fill-rule="evenodd"></path><path fill="#cfe2f3" d="m526.66144 331.29208l0 0c0 -3.5804749 2.9025269 -6.4830627 6.483032 -6.4830627l87.88428 0c1.7194214 0 3.3684082 0.68304443 4.5842285 1.8988647c1.2158203 1.2157898 1.8988647 2.8648071 1.8988647 4.584198l0 25.931519c0 3.5805054 -2.902588 6.4830627 -6.4830933 6.4830627l-87.88428 0l0 0c-3.5805054 0 -6.483032 -2.9025574 -6.483032 -6.4830627z" fill-rule="evenodd"></path><path stroke="#000000" stroke-width="1.0" stroke-linejoin="round" stroke-linecap="butt" d="m526.66144 331.29208l0 0c0 -3.5804749 2.9025269 -6.4830627 6.483032 -6.4830627l87.88428 0c1.7194214 0 3.3684082 0.68304443 4.5842285 1.8988647c1.2158203 1.2157898 1.8988647 2.8648071 1.8988647 4.584198l0 25.931519c0 3.5805054 -2.902588 6.4830627 -6.4830933 6.4830627l-87.88428 0l0 0c-3.5805054 0 -6.483032 -2.9025574 -6.483032 -6.4830627z" fill-rule="evenodd"></path><path fill="#000000" fill-opacity="0.0" d="m78.32284 224.97113l0 99.84253" fill-rule="evenodd"></path><path stroke="#6aa84f" stroke-width="3.0" stroke-linejoin="round" stroke-linecap="butt" d="m78.32284 224.97113l0 81.84253" fill-rule="evenodd"></path><path fill="#6aa84f" stroke="#6aa84f" stroke-width="3.0" stroke-linecap="butt" d="m73.36764 306.81366l4.9552 13.614288l4.9551926 -13.614288z" fill-rule="evenodd"></path><path fill="#000000" fill-opacity="0.0" d="m190.89502 224.97113l0 99.84253" fill-rule="evenodd"></path><path stroke="#6aa84f" stroke-width="3.0" stroke-linejoin="round" stroke-linecap="butt" d="m190.89502 224.97113l0 81.84253" fill-rule="evenodd"></path><path fill="#6aa84f" stroke="#6aa84f" stroke-width="3.0" stroke-linecap="butt" d="m185.93982 306.81366l4.9552 13.614288l4.955185 -13.614288z" fill-rule="evenodd"></path><path fill="#000000" fill-opacity="0.0" d="m577.0866 224.97113l0 99.84253" fill-rule="evenodd"></path><path stroke="#6aa84f" stroke-width="3.0" stroke-linejoin="round" stroke-linecap="butt" d="m577.0866 224.97113l0 81.84253" fill-rule="evenodd"></path><path fill="#6aa84f" stroke="#6aa84f" stroke-width="3.0" stroke-linecap="butt" d="m572.1314 306.81366l4.9552 13.614288l4.9552 -13.614288z" fill-rule="evenodd"></path><path fill="#000000" fill-opacity="0.0" d="m670.64044 78.49869l199.59052 0l0 104.09448l-199.59052 0z" fill-rule="evenodd"></path><path fill="#6d9eeb" d="m726.256 110.765564l4.5 -0.4375q0.40625 2.265625 1.640625 3.328125q1.25 1.0625 3.359375 1.0625q2.234375 0 3.359375 -0.9375q1.140625 -0.953125 1.140625 -2.21875q0 -0.8125 -0.484375 -1.375q-0.46875 -0.578125 -1.65625 -1.0q-0.8125 -0.28125 -3.703125 -1.0q-3.71875 -0.921875 -5.21875 -2.265625q-2.109375 -1.890625 -2.109375 -4.609375q0 -1.75 0.984375 -3.265625q1.0 -1.53125 2.859375 -2.328125q1.875 -0.796875 4.515625 -0.796875q4.3125 0 6.484375 1.890625q2.1875 1.890625 2.296875 5.046875l-4.625 0.203125q-0.296875 -1.765625 -1.28125 -2.53125q-0.96875 -0.78125 -2.921875 -0.78125q-2.015625 0 -3.15625 0.828125q-0.734375 0.53125 -0.734375 1.421875q0 0.8125 0.6875 1.390625q0.875 0.734375 4.25 1.53125q3.375 0.796875 4.984375 1.65625q1.625 0.84375 2.53125 2.328125q0.921875 1.46875 0.921875 3.640625q0 1.96875 -1.09375 3.6875q-1.09375 1.71875 -3.09375 2.5625q-2.0 0.828125 -4.984375 0.828125q-4.34375 0 -6.671875 -2.0q-2.328125 -2.015625 -2.78125 -5.859375zm22.515625 7.453125l0 -22.90625l7.421875 0q4.21875 0 5.5 0.34375q1.96875 0.515625 3.296875 2.25q1.328125 1.71875 1.328125 4.453125q0 2.109375 -0.765625 3.546875q-0.765625 1.4375 -1.953125 2.265625q-1.171875 0.8125 -2.390625 1.078125q-1.65625 0.328125 -4.796875 0.328125l-3.015625 0l0 8.640625l-4.625 0zm4.625 -19.03125l0 6.5l2.53125 0q2.734375 0 3.65625 -0.359375q0.921875 -0.359375 1.4375 -1.125q0.53125 -0.765625 0.53125 -1.78125q0 -1.25 -0.734375 -2.0625q-0.734375 -0.8125 -1.859375 -1.015625q-0.828125 -0.15625 -3.328125 -0.15625l-2.234375 0zm16.84375 19.03125l0 -22.71875l4.625 0l0 18.859375l11.5 0l0 3.859375l-16.125 0zm19.28125 0l0 -22.90625l4.625 0l0 22.90625l-4.625 0zm14.1875 0l0 -19.03125l-6.796875 0l0 -3.875l18.203125 0l0 3.875l-6.78125 0l0 19.03125l-4.625 0z" fill-rule="nonzero"></path><path fill="#6d9eeb" d="m707.4629 147.41869q-1.375 -1.75 -2.328125 -4.078125q-0.953125 -2.34375 -0.953125 -4.84375q0 -2.21875 0.703125 -4.234375q0.84375 -2.34375 2.578125 -4.671875l1.203125 0q-1.125 1.921875 -1.484375 2.75q-0.5625 1.28125 -0.890625 2.671875q-0.40625 1.734375 -0.40625 3.484375q0 4.46875 2.78125 8.921875l-1.203125 0zm9.7752075 -7.171875l1.71875 0.21875q-0.40625 1.5 -1.515625 2.34375q-1.09375 0.828125 -2.8125 0.828125q-2.15625 0 -3.421875 -1.328125q-1.265625 -1.328125 -1.265625 -3.734375q0 -2.484375 1.265625 -3.859375q1.28125 -1.375 3.328125 -1.375q1.984375 0 3.234375 1.34375q1.25 1.34375 1.25 3.796875q0 0.140625 -0.015625 0.4375l-7.34375 0q0.09375 1.625 0.921875 2.484375q0.828125 0.859375 2.0625 0.859375q0.90625 0 1.546875 -0.46875q0.65625 -0.484375 1.046875 -1.546875zm-5.484375 -2.703125l5.5 0q-0.109375 -1.234375 -0.625 -1.859375q-0.796875 -0.96875 -2.078125 -0.96875q-1.140625 0 -1.9375 0.78125q-0.78125 0.765625 -0.859375 2.046875zm9.578857 5.875l0 -1.90625l1.90625 0l0 1.90625l-1.90625 0zm4.4176636 0.8125l1.609375 0.25q0.109375 0.75 0.578125 1.09375q0.609375 0.453125 1.6875 0.453125q1.171875 0 1.796875 -0.46875q0.625 -0.453125 0.859375 -1.28125q0.125 -0.515625 0.109375 -2.15625q-1.09375 1.296875 -2.71875 1.296875q-2.03125 0 -3.15625 -1.46875q-1.109375 -1.46875 -1.109375 -3.515625q0 -1.40625 0.515625 -2.59375q0.515625 -1.203125 1.484375 -1.84375q0.96875 -0.65625 2.265625 -0.65625q1.75 0 2.875 1.40625l0 -1.1875l1.546875 0l0 8.515625q0 2.3125 -0.46875 3.265625q-0.46875 0.96875 -1.484375 1.515625q-1.015625 0.5625 -2.5 0.5625q-1.765625 0 -2.859375 -0.796875q-1.078125 -0.796875 -1.03125 -2.390625zm1.375 -5.921875q0 1.953125 0.765625 2.84375q0.78125 0.890625 1.9375 0.890625q1.140625 0 1.921875 -0.890625q0.78125 -0.890625 0.78125 -2.78125q0 -1.8125 -0.8125 -2.71875q-0.796875 -0.921875 -1.921875 -0.921875q-1.109375 0 -1.890625 0.90625q-0.78125 0.890625 -0.78125 2.671875zm9.766357 5.109375l0 -1.90625l1.90625 0l0 1.90625l-1.90625 0zm16.647827 -3.171875l1.71875 0.21875q-0.40625 1.5 -1.515625 2.34375q-1.09375 0.828125 -2.8125 0.828125q-2.15625 0 -3.421875 -1.328125q-1.265625 -1.328125 -1.265625 -3.734375q0 -2.484375 1.265625 -3.859375q1.28125 -1.375 3.328125 -1.375q1.984375 0 3.234375 1.34375q1.25 1.34375 1.25 3.796875q0 0.140625 -0.015625 0.4375l-7.34375 0q0.09375 1.625 0.921875 2.484375q0.828125 0.859375 2.0625 0.859375q0.90625 0 1.546875 -0.46875q0.65625 -0.484375 1.046875 -1.546875zm-5.484375 -2.703125l5.5 0q-0.109375 -1.234375 -0.625 -1.859375q-0.796875 -0.96875 -2.078125 -0.96875q-1.140625 0 -1.9375 0.78125q-0.78125 0.765625 -0.859375 2.046875zm11.844482 5.875l-3.75 -9.859375l1.765625 0l2.125 5.90625q0.34375 0.953125 0.625 1.984375q0.21875 -0.78125 0.625 -1.875l2.1875 -6.015625l1.71875 0l-3.734375 9.859375l-1.5625 0zm13.34375 -3.171875l1.71875 0.21875q-0.40625 1.5 -1.515625 2.34375q-1.09375 0.828125 -2.8125 0.828125q-2.15625 0 -3.421875 -1.328125q-1.265625 -1.328125 -1.265625 -3.734375q0 -2.484375 1.265625 -3.859375q1.28125 -1.375 3.328125 -1.375q1.984375 0 3.234375 1.34375q1.25 1.34375 1.25 3.796875q0 0.140625 -0.015625 0.4375l-7.34375 0q0.09375 1.625 0.921875 2.484375q0.828125 0.859375 2.0625 0.859375q0.90625 0 1.546875 -0.46875q0.65625 -0.484375 1.046875 -1.546875zm-5.484375 -2.703125l5.5 0q-0.109375 -1.234375 -0.625 -1.859375q-0.796875 -0.96875 -2.078125 -0.96875q-1.140625 0 -1.9375 0.78125q-0.78125 0.765625 -0.859375 2.046875zm9.094482 5.875l0 -9.859375l1.5 0l0 1.5q0.578125 -1.046875 1.0625 -1.375q0.484375 -0.34375 1.078125 -0.34375q0.84375 0 1.71875 0.546875l-0.578125 1.546875q-0.609375 -0.359375 -1.234375 -0.359375q-0.546875 0 -0.984375 0.328125q-0.421875 0.328125 -0.609375 0.90625q-0.28125 0.890625 -0.28125 1.953125l0 5.15625l-1.671875 0zm6.1501465 3.796875l-0.171875 -1.5625q0.546875 0.140625 0.953125 0.140625q0.546875 0 0.875 -0.1875q0.34375 -0.1875 0.5625 -0.515625q0.15625 -0.25 0.5 -1.25q0.046875 -0.140625 0.15625 -0.40625l-3.734375 -9.875l1.796875 0l2.046875 5.71875q0.40625 1.078125 0.71875 2.28125q0.28125 -1.15625 0.6875 -2.25l2.09375 -5.75l1.671875 0l-3.75 10.03125q-0.59375 1.625 -0.9375 2.234375q-0.4375 0.828125 -1.015625 1.203125q-0.578125 0.390625 -1.375 0.390625q-0.484375 0 -1.078125 -0.203125zm20.417664 -3.796875l-1.671875 0l0 -10.640625q-0.59375 0.578125 -1.578125 1.15625q-0.984375 0.5625 -1.765625 0.859375l0 -1.625q1.40625 -0.65625 2.453125 -1.59375q1.046875 -0.9375 1.484375 -1.8125l1.078125 0l0 13.65625zm4.0788574 -6.703125q0 -2.421875 0.5 -3.890625q0.5 -1.46875 1.46875 -2.265625q0.984375 -0.796875 2.46875 -0.796875q1.09375 0 1.921875 0.4375q0.828125 0.4375 1.359375 1.28125q0.546875 0.828125 0.84375 2.015625q0.3125 1.1875 0.3125 3.21875q0 2.390625 -0.5 3.859375q-0.484375 1.46875 -1.46875 2.28125q-0.96875 0.796875 -2.46875 0.796875q-1.96875 0 -3.078125 -1.40625q-1.359375 -1.703125 -1.359375 -5.53125zm1.71875 0q0 3.34375 0.78125 4.453125q0.796875 1.109375 1.9375 1.109375q1.15625 0 1.9375 -1.109375q0.78125 -1.125 0.78125 -4.453125q0 -3.359375 -0.78125 -4.46875q-0.78125 -1.109375 -1.953125 -1.109375q-1.15625 0 -1.828125 0.984375q-0.875 1.234375 -0.875 4.59375zm8.656982 0q0 -2.421875 0.5 -3.890625q0.5 -1.46875 1.46875 -2.265625q0.984375 -0.796875 2.46875 -0.796875q1.09375 0 1.921875 0.4375q0.828125 0.4375 1.359375 1.28125q0.546875 0.828125 0.84375 2.015625q0.3125 1.1875 0.3125 3.21875q0 2.390625 -0.5 3.859375q-0.484375 1.46875 -1.46875 2.28125q-0.96875 0.796875 -2.46875 0.796875q-1.96875 0 -3.078125 -1.40625q-1.359375 -1.703125 -1.359375 -5.53125zm1.71875 0q0 3.34375 0.78125 4.453125q0.796875 1.109375 1.9375 1.109375q1.15625 0 1.9375 -1.109375q0.78125 -1.125 0.78125 -4.453125q0 -3.359375 -0.78125 -4.46875q-0.78125 -1.109375 -1.953125 -1.109375q-1.15625 0 -1.828125 0.984375q-0.875 1.234375 -0.875 4.59375zm8.656982 0q0 -2.421875 0.5 -3.890625q0.5 -1.46875 1.46875 -2.265625q0.984375 -0.796875 2.46875 -0.796875q1.09375 0 1.921875 0.4375q0.828125 0.4375 1.359375 1.28125q0.546875 0.828125 0.84375 2.015625q0.3125 1.1875 0.3125 3.21875q0 2.390625 -0.5 3.859375q-0.484375 1.46875 -1.46875 2.28125q-0.96875 0.796875 -2.46875 0.796875q-1.96875 0 -3.078125 -1.40625q-1.359375 -1.703125 -1.359375 -5.53125zm1.71875 0q0 3.34375 0.78125 4.453125q0.796875 1.109375 1.9375 1.109375q1.15625 0 1.9375 -1.109375q0.78125 -1.125 0.78125 -4.453125q0 -3.359375 -0.78125 -4.46875q-0.78125 -1.109375 -1.953125 -1.109375q-1.15625 0 -1.828125 0.984375q-0.875 1.234375 -0.875 4.59375z" fill-rule="nonzero"></path><path fill="#6d9eeb" d="m740.28235 161.80931l1.640625 0.21875q-0.265625 1.6875 -1.375 2.65625q-1.109375 0.953125 -2.734375 0.953125q-2.015625 0 -3.25 -1.3125q-1.21875 -1.328125 -1.21875 -3.796875q0 -1.59375 0.515625 -2.78125q0.53125 -1.203125 1.609375 -1.796875q1.09375 -0.609375 2.359375 -0.609375q1.609375 0 2.625 0.8125q1.015625 0.8125 1.3125 2.3125l-1.625 0.25q-0.234375 -1.0 -0.828125 -1.5q-0.59375 -0.5 -1.421875 -0.5q-1.265625 0 -2.0625 0.90625q-0.78125 0.90625 -0.78125 2.859375q0 1.984375 0.765625 2.890625q0.765625 0.890625 1.984375 0.890625q0.984375 0 1.640625 -0.59375q0.65625 -0.609375 0.84375 -1.859375zm2.265625 -1.3125q0 -2.734375 1.53125 -4.0625q1.265625 -1.09375 3.09375 -1.09375q2.03125 0 3.3125 1.34375q1.296875 1.328125 1.296875 3.671875q0 1.90625 -0.578125 3.0q-0.5625 1.078125 -1.65625 1.6875q-1.078125 0.59375 -2.375 0.59375q-2.0625 0 -3.34375 -1.328125q-1.28125 -1.328125 -1.28125 -3.8125zm1.71875 0q0 1.890625 0.828125 2.828125q0.828125 0.9375 2.078125 0.9375q1.25 0 2.0625 -0.9375q0.828125 -0.953125 0.828125 -2.890625q0 -1.828125 -0.828125 -2.765625q-0.828125 -0.9375 -2.0625 -0.9375q-1.25 0 -2.078125 0.9375q-0.828125 0.9375 -0.828125 2.828125zm9.250732 4.921875l0 -13.59375l1.671875 0l0 13.59375l-1.671875 0zm10.62915 0l0 -1.453125q-1.140625 1.671875 -3.125 1.671875q-0.859375 0 -1.625 -0.328125q-0.75 -0.34375 -1.125 -0.84375q-0.359375 -0.5 -0.515625 -1.234375q-0.09375 -0.5 -0.09375 -1.5625l0 -6.109375l1.671875 0l0 5.46875q0 1.3125 0.09375 1.765625q0.15625 0.65625 0.671875 1.03125q0.515625 0.375 1.265625 0.375q0.75 0 1.40625 -0.375q0.65625 -0.390625 0.921875 -1.046875q0.28125 -0.671875 0.28125 -1.9375l0 -5.28125l1.671875 0l0 9.859375l-1.5 0zm3.9226074 0l0 -9.859375l1.5 0l0 1.390625q0.453125 -0.71875 1.21875 -1.15625q0.78125 -0.453125 1.765625 -0.453125q1.09375 0 1.796875 0.453125q0.703125 0.453125 0.984375 1.28125q1.171875 -1.734375 3.046875 -1.734375q1.46875 0 2.25 0.8125q0.796875 0.8125 0.796875 2.5l0 6.765625l-1.671875 0l0 -6.203125q0 -1.0 -0.15625 -1.4375q-0.15625 -0.453125 -0.59375 -0.71875q-0.421875 -0.265625 -1.0 -0.265625q-1.03125 0 -1.71875 0.6875q-0.6875 0.6875 -0.6875 2.21875l0 5.71875l-1.671875 0l0 -6.40625q0 -1.109375 -0.40625 -1.65625q-0.40625 -0.5625 -1.34375 -0.5625q-0.703125 0 -1.3125 0.375q-0.59375 0.359375 -0.859375 1.078125q-0.265625 0.71875 -0.265625 2.0625l0 5.109375l-1.671875 0zm15.5408325 0l0 -9.859375l1.5 0l0 1.40625q1.09375 -1.625 3.140625 -1.625q0.890625 0 1.640625 0.328125q0.75 0.3125 1.109375 0.84375q0.375 0.515625 0.53125 1.21875q0.09375 0.46875 0.09375 1.625l0 6.0625l-1.671875 0l0 -6.0q0 -1.015625 -0.203125 -1.515625q-0.1875 -0.515625 -0.6875 -0.8125q-0.5 -0.296875 -1.171875 -0.296875q-1.0625 0 -1.84375 0.671875q-0.765625 0.671875 -0.765625 2.578125l0 5.375l-1.671875 0zm9.703796 -2.9375l1.65625 -0.265625q0.140625 1.0 0.765625 1.53125q0.640625 0.515625 1.78125 0.515625q1.15625 0 1.703125 -0.46875q0.5625 -0.46875 0.5625 -1.09375q0 -0.5625 -0.484375 -0.890625q-0.34375 -0.21875 -1.703125 -0.5625q-1.84375 -0.46875 -2.5625 -0.796875q-0.703125 -0.34375 -1.078125 -0.9375q-0.359375 -0.609375 -0.359375 -1.328125q0 -0.65625 0.296875 -1.21875q0.3125 -0.5625 0.828125 -0.9375q0.390625 -0.28125 1.0625 -0.484375q0.671875 -0.203125 1.4375 -0.203125q1.171875 0 2.046875 0.34375q0.875 0.328125 1.28125 0.90625q0.421875 0.5625 0.578125 1.515625l-1.625 0.21875q-0.109375 -0.75 -0.65625 -1.171875q-0.53125 -0.4375 -1.5 -0.4375q-1.15625 0 -1.640625 0.390625q-0.484375 0.375 -0.484375 0.875q0 0.328125 0.203125 0.59375q0.203125 0.265625 0.640625 0.4375q0.25 0.09375 1.46875 0.4375q1.765625 0.46875 2.46875 0.765625q0.703125 0.296875 1.09375 0.875q0.40625 0.578125 0.40625 1.4375q0 0.828125 -0.484375 1.578125q-0.484375 0.734375 -1.40625 1.140625q-0.921875 0.390625 -2.078125 0.390625q-1.921875 0 -2.9375 -0.796875q-1.0 -0.796875 -1.28125 -2.359375zm11.09375 6.9375l-1.1875 0q2.765625 -4.453125 2.765625 -8.921875q0 -1.734375 -0.390625 -3.453125q-0.328125 -1.390625 -0.890625 -2.671875q-0.359375 -0.84375 -1.484375 -2.78125l1.1875 0q1.75 2.328125 2.578125 4.671875q0.71875 2.015625 0.71875 4.234375q0 2.5 -0.96875 4.84375q-0.953125 2.328125 -2.328125 4.078125z" fill-rule="nonzero"></path><path fill="#000000" fill-opacity="0.0" d="m670.64044 231.40945l199.59052 0l0 77.00787l-199.59052 0z" fill-rule="evenodd"></path><path fill="#6aa84f" d="m740.0763 271.12946l-5.03125 0l-2.0 -5.203125l-9.15625 0l-1.890625 5.203125l-4.90625 0l8.921875 -22.90625l4.890625 0l9.171875 22.90625zm-8.515625 -9.0625l-3.15625 -8.5l-3.09375 8.5l6.25 0zm10.96875 9.0625l0 -22.90625l7.421875 0q4.21875 0 5.5 0.34375q1.96875 0.515625 3.296875 2.25q1.328125 1.71875 1.328125 4.453125q0 2.109375 -0.765625 3.546875q-0.765625 1.4375 -1.953125 2.265625q-1.171875 0.8125 -2.390625 1.078125q-1.65625 0.328125 -4.796875 0.328125l-3.015625 0l0 8.640625l-4.625 0zm4.625 -19.03125l0 6.5l2.53125 0q2.734375 0 3.65625 -0.359375q0.921875 -0.359375 1.4375 -1.125q0.53125 -0.765625 0.53125 -1.78125q0 -1.25 -0.734375 -2.0625q-0.734375 -0.8125 -1.859375 -1.015625q-0.828125 -0.15625 -3.328125 -0.15625l-2.234375 0zm16.71875 19.03125l0 -22.90625l7.421875 0q4.21875 0 5.5 0.34375q1.96875 0.515625 3.296875 2.25q1.328125 1.71875 1.328125 4.453125q0 2.109375 -0.765625 3.546875q-0.765625 1.4375 -1.953125 2.265625q-1.171875 0.8125 -2.390625 1.078125q-1.65625 0.328125 -4.796875 0.328125l-3.015625 0l0 8.640625l-4.625 0zm4.625 -19.03125l0 6.5l2.53125 0q2.734375 0 3.65625 -0.359375q0.921875 -0.359375 1.4375 -1.125q0.53125 -0.765625 0.53125 -1.78125q0 -1.25 -0.734375 -2.0625q-0.734375 -0.8125 -1.859375 -1.015625q-0.828125 -0.15625 -3.328125 -0.15625l-2.234375 0zm16.84375 19.03125l0 -22.71875l4.625 0l0 18.859375l11.5 0l0 3.859375l-16.125 0zm25.4375 0l0 -9.640625l-8.390625 -13.265625l5.421875 0l5.390625 9.0625l5.28125 -9.0625l5.328125 0l-8.421875 13.296875l0 9.609375l-4.609375 0z" fill-rule="nonzero"></path><path fill="#6aa84f" d="m704.35205 300.32944q-1.375 -1.75 -2.328125 -4.078125q-0.953125 -2.34375 -0.953125 -4.84375q0 -2.21875 0.703125 -4.234375q0.84375 -2.34375 2.578125 -4.671875l1.203125 0q-1.125 1.921875 -1.484375 2.75q-0.5625 1.28125 -0.890625 2.671875q-0.40625 1.734375 -0.40625 3.484375q0 4.46875 2.78125 8.921875l-1.203125 0zm9.7751465 -7.171875l1.71875 0.21875q-0.40625 1.5 -1.515625 2.34375q-1.09375 0.828125 -2.8125 0.828125q-2.15625 0 -3.421875 -1.328125q-1.265625 -1.328125 -1.265625 -3.734375q0 -2.484375 1.265625 -3.859375q1.28125 -1.375 3.328125 -1.375q1.984375 0 3.234375 1.34375q1.25 1.34375 1.25 3.796875q0 0.140625 -0.015625 0.4375l-7.34375 0q0.09375 1.625 0.921875 2.484375q0.828125 0.859375 2.0625 0.859375q0.90625 0 1.546875 -0.46875q0.65625 -0.484375 1.046875 -1.546875zm-5.484375 -2.703125l5.5 0q-0.109375 -1.234375 -0.625 -1.859375q-0.796875 -0.96875 -2.078125 -0.96875q-1.140625 0 -1.9375 0.78125q-0.78125 0.765625 -0.859375 2.046875zm9.578857 5.875l0 -1.90625l1.90625 0l0 1.90625l-1.90625 0zm4.4176636 0.8125l1.609375 0.25q0.109375 0.75 0.578125 1.09375q0.609375 0.453125 1.6875 0.453125q1.171875 0 1.796875 -0.46875q0.625 -0.453125 0.859375 -1.28125q0.125 -0.515625 0.109375 -2.15625q-1.09375 1.296875 -2.71875 1.296875q-2.03125 0 -3.15625 -1.46875q-1.109375 -1.46875 -1.109375 -3.515625q0 -1.40625 0.515625 -2.59375q0.515625 -1.203125 1.484375 -1.84375q0.96875 -0.65625 2.265625 -0.65625q1.75 0 2.875 1.40625l0 -1.1875l1.546875 0l0 8.515625q0 2.3125 -0.46875 3.265625q-0.46875 0.96875 -1.484375 1.515625q-1.015625 0.5625 -2.5 0.5625q-1.765625 0 -2.859375 -0.796875q-1.078125 -0.796875 -1.03125 -2.390625zm1.375 -5.921875q0 1.953125 0.765625 2.84375q0.78125 0.890625 1.9375 0.890625q1.140625 0 1.921875 -0.890625q0.78125 -0.890625 0.78125 -2.78125q0 -1.8125 -0.8125 -2.71875q-0.796875 -0.921875 -1.921875 -0.921875q-1.109375 0 -1.890625 0.90625q-0.78125 0.890625 -0.78125 2.671875zm9.766357 5.109375l0 -1.90625l1.90625 0l0 1.90625l-1.90625 0z" fill-rule="nonzero"></path><path fill="#6aa84f" d="m751.1473 295.9857q-0.625 0.234375 -1.296875 0.34375q-0.65625 0.125 -1.359375 0.125q-2.21875 0 -3.40625 -1.1875q-1.1875 -1.203125 -1.1875 -3.5q0 -1.109375 0.34375 -2.0q0.34375 -0.90625 0.953125 -1.546875q0.625 -0.640625 1.484375 -0.984375q0.875 -0.34375 1.90625 -0.34375q0.734375 0 1.359375 0.109375q0.625 0.09375 1.203125 0.3125l0 1.546875q-0.59375 -0.3125 -1.234375 -0.453125q-0.625 -0.15625 -1.28125 -0.15625q-0.625 0 -1.1875 0.25q-0.546875 0.234375 -0.96875 0.6875q-0.40625 0.4375 -0.65625 1.078125q-0.234375 0.640625 -0.234375 1.4375q0 1.6875 0.8125 2.53125q0.828125 0.84375 2.28125 0.84375q0.65625 0 1.265625 -0.140625q0.625 -0.15625 1.203125 -0.453125l0 1.5zm11.132324 -4.390625q0 1.09375 -0.3125 2.0q-0.296875 0.890625 -0.875 1.546875q-0.578125 0.640625 -1.40625 1.0q-0.828125 0.359375 -1.875 0.359375q-1.0 0 -1.796875 -0.3125q-0.78125 -0.3125 -1.34375 -0.90625q-0.546875 -0.609375 -0.84375 -1.5q-0.28125 -0.890625 -0.28125 -2.0625q0 -1.078125 0.296875 -1.96875q0.3125 -0.90625 0.875 -1.546875q0.578125 -0.640625 1.40625 -1.0q0.828125 -0.359375 1.875 -0.359375q1.0 0 1.796875 0.3125q0.796875 0.3125 1.34375 0.921875q0.5625 0.59375 0.84375 1.484375q0.296875 0.890625 0.296875 2.03125zm-1.65625 0.078125q0 -0.859375 -0.1875 -1.5q-0.1875 -0.65625 -0.546875 -1.078125q-0.34375 -0.4375 -0.859375 -0.65625q-0.5 -0.21875 -1.125 -0.21875q-0.71875 0 -1.234375 0.28125q-0.515625 0.28125 -0.84375 0.765625q-0.328125 0.46875 -0.484375 1.09375q-0.15625 0.625 -0.15625 1.3125q0 0.859375 0.1875 1.515625q0.203125 0.640625 0.546875 1.078125q0.359375 0.421875 0.859375 0.640625q0.5 0.21875 1.125 0.21875q0.734375 0 1.25 -0.28125q0.515625 -0.28125 0.84375 -0.75q0.328125 -0.46875 0.46875 -1.09375q0.15625 -0.640625 0.15625 -1.328125zm6.976013 -7.125l-2.75 0l0 -1.328125l4.390625 0l0 11.765625l2.765625 0l0 1.34375l-7.46875 0l0 -1.34375l3.0625 0l0 -10.4375zm14.851074 8.5q0 0.859375 -0.359375 1.515625q-0.34375 0.640625 -0.984375 1.078125q-0.625 0.421875 -1.515625 0.640625q-0.875 0.21875 -1.953125 0.21875q-0.46875 0 -0.953125 -0.046875q-0.484375 -0.03125 -0.921875 -0.09375q-0.4375 -0.046875 -0.828125 -0.125q-0.390625 -0.078125 -0.703125 -0.15625l0 -1.59375q0.6875 0.25 1.546875 0.40625q0.875 0.140625 1.984375 0.140625q0.796875 0 1.359375 -0.125q0.5625 -0.125 0.921875 -0.359375q0.359375 -0.25 0.515625 -0.59375q0.171875 -0.359375 0.171875 -0.8125q0 -0.5 -0.28125 -0.84375q-0.265625 -0.34375 -0.71875 -0.609375q-0.4375 -0.28125 -1.015625 -0.5q-0.578125 -0.234375 -1.171875 -0.46875q-0.59375 -0.25 -1.171875 -0.53125q-0.5625 -0.28125 -1.015625 -0.671875q-0.4375 -0.390625 -0.71875 -0.90625q-0.265625 -0.515625 -0.265625 -1.234375q0 -0.625 0.265625 -1.21875q0.265625 -0.609375 0.8125 -1.078125q0.546875 -0.46875 1.40625 -0.75q0.859375 -0.296875 2.046875 -0.296875q0.296875 0 0.65625 0.03125q0.359375 0.03125 0.71875 0.078125q0.375 0.046875 0.734375 0.125q0.359375 0.0625 0.65625 0.125l0 1.484375q-0.71875 -0.203125 -1.4375 -0.296875q-0.703125 -0.109375 -1.375 -0.109375q-1.421875 0 -2.09375 0.46875q-0.65625 0.46875 -0.65625 1.265625q0 0.5 0.265625 0.859375q0.28125 0.34375 0.71875 0.625q0.453125 0.28125 1.015625 0.515625q0.578125 0.21875 1.171875 0.46875q0.59375 0.234375 1.15625 0.515625q0.578125 0.28125 1.015625 0.6875q0.453125 0.390625 0.71875 0.921875q0.28125 0.515625 0.28125 1.25zm9.976013 3.28125l-1.4375 0l-0.0625 -1.5q-0.421875 0.484375 -0.796875 0.8125q-0.375 0.3125 -0.75 0.515625q-0.359375 0.1875 -0.734375 0.265625q-0.375 0.078125 -0.796875 0.078125q-1.4375 0 -2.171875 -0.84375q-0.734375 -0.84375 -0.734375 -2.5625l0 -6.078125l1.609375 0l0 5.953125q0 2.140625 1.625 2.140625q0.296875 0 0.578125 -0.078125q0.28125 -0.09375 0.59375 -0.3125q0.3125 -0.21875 0.65625 -0.578125q0.359375 -0.375 0.8125 -0.953125l0 -6.171875l1.609375 0l0 9.3125zm9.413574 0l0 -6.6875q0 -0.4375 -0.03125 -0.71875q-0.03125 -0.28125 -0.109375 -0.4375q-0.0625 -0.15625 -0.171875 -0.21875q-0.109375 -0.078125 -0.265625 -0.078125q-0.1875 0 -0.34375 0.125q-0.15625 0.109375 -0.34375 0.359375q-0.171875 0.25 -0.390625 0.65625q-0.21875 0.40625 -0.515625 1.015625l0 5.984375l-1.46875 0l0 -6.515625q0 -0.5 -0.03125 -0.8125q-0.03125 -0.328125 -0.109375 -0.5q-0.0625 -0.171875 -0.1875 -0.234375q-0.109375 -0.078125 -0.265625 -0.078125q-0.15625 0 -0.3125 0.09375q-0.140625 0.09375 -0.328125 0.34375q-0.171875 0.234375 -0.40625 0.65625q-0.21875 0.40625 -0.53125 1.0625l0 5.984375l-1.484375 0l0 -9.3125l1.234375 0l0.078125 1.765625q0.25 -0.53125 0.46875 -0.890625q0.234375 -0.375 0.46875 -0.59375q0.25 -0.234375 0.515625 -0.34375q0.28125 -0.109375 0.609375 -0.109375q0.75 0 1.140625 0.5q0.390625 0.484375 0.390625 1.515625q0.21875 -0.484375 0.4375 -0.859375q0.21875 -0.375 0.453125 -0.625q0.25 -0.265625 0.546875 -0.390625q0.296875 -0.140625 0.6875 -0.140625q1.75 0 1.75 2.703125l0 6.78125l-1.484375 0zm10.991638 -2.546875q0 0.5 -0.171875 0.890625q-0.15625 0.390625 -0.453125 0.6875q-0.28125 0.296875 -0.671875 0.515625q-0.375 0.21875 -0.8125 0.359375q-0.421875 0.125 -0.875 0.1875q-0.453125 0.078125 -0.890625 0.078125q-0.953125 0 -1.75 -0.09375q-0.78125 -0.078125 -1.546875 -0.265625l0 -1.484375q0.8125 0.234375 1.625 0.359375q0.8125 0.109375 1.609375 0.109375q1.15625 0 1.703125 -0.3125q0.5625 -0.3125 0.5625 -0.890625q0 -0.25 -0.09375 -0.453125q-0.078125 -0.203125 -0.3125 -0.375q-0.234375 -0.1875 -0.71875 -0.375q-0.484375 -0.203125 -1.328125 -0.453125q-0.640625 -0.1875 -1.171875 -0.421875q-0.53125 -0.234375 -0.921875 -0.5625q-0.390625 -0.328125 -0.609375 -0.765625q-0.21875 -0.4375 -0.21875 -1.03125q0 -0.390625 0.171875 -0.84375q0.1875 -0.46875 0.625 -0.859375q0.4375 -0.40625 1.171875 -0.671875q0.75 -0.265625 1.859375 -0.265625q0.546875 0 1.21875 0.0625q0.671875 0.0625 1.390625 0.203125l0 1.4375q-0.765625 -0.171875 -1.453125 -0.265625q-0.671875 -0.09375 -1.171875 -0.09375q-0.609375 0 -1.03125 0.09375q-0.40625 0.09375 -0.65625 0.265625q-0.25 0.15625 -0.375 0.375q-0.109375 0.21875 -0.109375 0.46875q0 0.25 0.09375 0.453125q0.109375 0.203125 0.375 0.390625q0.265625 0.1875 0.734375 0.390625q0.46875 0.1875 1.234375 0.40625q0.828125 0.234375 1.390625 0.5q0.5625 0.265625 0.90625 0.59375q0.359375 0.328125 0.515625 0.734375q0.15625 0.40625 0.15625 0.921875zm8.460449 6.4375q-4.28125 -3.953125 -4.28125 -8.75q0 -1.125 0.21875 -2.234375q0.234375 -1.125 0.734375 -2.25q0.515625 -1.125 1.34375 -2.234375q0.828125 -1.125 2.015625 -2.234375l0.9375 0.953125q-3.59375 3.546875 -3.59375 7.875q0 2.15625 0.90625 4.140625q0.90625 1.984375 2.6875 3.75l-0.96875 0.984375zm6.585388 -17.703125q4.265625 3.953125 4.265625 8.8125q0 1.0 -0.203125 2.078125q-0.203125 1.078125 -0.703125 2.203125q-0.484375 1.125 -1.3125 2.28125q-0.828125 1.171875 -2.09375 2.328125l-0.9375 -0.953125q1.8125 -1.78125 2.703125 -3.734375q0.890625 -1.953125 0.890625 -4.078125q0 -4.421875 -3.59375 -7.953125l0.984375 -0.984375z" fill-rule="nonzero"></path><path fill="#6aa84f" d="m837.08795 300.32944l-1.1875 0q2.765625 -4.453125 2.765625 -8.921875q0 -1.734375 -0.390625 -3.453125q-0.328125 -1.390625 -0.890625 -2.671875q-0.359375 -0.84375 -1.484375 -2.78125l1.1875 0q1.75 2.328125 2.578125 4.671875q0.71875 2.015625 0.71875 4.234375q0 2.5 -0.96875 4.84375q-0.953125 2.328125 -2.328125 4.078125z" fill-rule="nonzero"></path><path fill="#000000" fill-opacity="0.0" d="m670.64044 315.97375l199.59052 0l0 104.09448l-199.59052 0z" fill-rule="evenodd"></path><path fill="#ff0000" d="m711.86536 347.27188l4.484375 1.421875q-1.03125 3.75 -3.4375 5.578125q-2.390625 1.8125 -6.078125 1.8125q-4.5625 0 -7.5 -3.109375q-2.9375 -3.125 -2.9375 -8.53125q0 -5.71875 2.953125 -8.875q2.953125 -3.171875 7.765625 -3.171875q4.203125 0 6.828125 2.484375q1.5625 1.46875 2.34375 4.21875l-4.578125 1.09375q-0.40625 -1.78125 -1.703125 -2.8125q-1.28125 -1.03125 -3.125 -1.03125q-2.546875 0 -4.140625 1.828125q-1.578125 1.828125 -1.578125 5.921875q0 4.34375 1.5625 6.1875q1.5625 1.84375 4.0625 1.84375q1.84375 0 3.171875 -1.171875q1.328125 -1.171875 1.90625 -3.6875zm7.515625 -2.890625q0 -3.5 1.046875 -5.875q0.78125 -1.75 2.125 -3.140625q1.359375 -1.390625 2.96875 -2.0625q2.140625 -0.90625 4.9375 -0.90625q5.0625 0 8.09375 3.140625q3.046875 3.140625 3.046875 8.734375q0 5.546875 -3.015625 8.6875q-3.015625 3.125 -8.0625 3.125q-5.109375 0 -8.125 -3.109375q-3.015625 -3.125 -3.015625 -8.59375zm4.765625 -0.15625q0 3.890625 1.796875 5.90625q1.796875 2.0 4.5625 2.0q2.765625 0 4.53125 -1.984375q1.78125 -2.0 1.78125 -5.984375q0 -3.9375 -1.734375 -5.875q-1.71875 -1.9375 -4.578125 -1.9375q-2.859375 0 -4.609375 1.96875q-1.75 1.953125 -1.75 5.90625zm21.0 11.46875l0 -22.90625l6.921875 0l4.15625 15.625l4.109375 -15.625l6.9375 0l0 22.90625l-4.296875 0l0 -18.03125l-4.546875 18.03125l-4.453125 0l-4.53125 -18.03125l0 18.03125l-4.296875 0zm26.734375 -22.90625l9.15625 0q2.71875 0 4.046875 0.234375q1.34375 0.21875 2.390625 0.9375q1.0625 0.71875 1.765625 1.921875q0.703125 1.1875 0.703125 2.671875q0 1.609375 -0.875 2.953125q-0.859375 1.34375 -2.34375 2.015625q2.09375 0.609375 3.21875 2.078125q1.125 1.46875 1.125 3.453125q0 1.5625 -0.734375 3.046875q-0.71875 1.46875 -1.984375 2.359375q-1.25 0.875 -3.09375 1.078125q-1.15625 0.125 -5.578125 0.15625l-7.796875 0l0 -22.90625zm4.625 3.8125l0 5.296875l3.03125 0q2.703125 0 3.359375 -0.078125q1.1875 -0.140625 1.859375 -0.8125q0.6875 -0.6875 0.6875 -1.796875q0 -1.0625 -0.59375 -1.71875q-0.578125 -0.671875 -1.734375 -0.8125q-0.6875 -0.078125 -3.953125 -0.078125l-2.65625 0zm0 9.109375l0 6.125l4.28125 0q2.5 0 3.171875 -0.140625q1.03125 -0.1875 1.671875 -0.90625q0.65625 -0.734375 0.65625 -1.953125q0 -1.03125 -0.5 -1.75q-0.5 -0.71875 -1.453125 -1.046875q-0.9375 -0.328125 -4.09375 -0.328125l-3.734375 0zm18.328125 9.984375l0 -22.90625l4.625 0l0 22.90625l-4.625 0zm9.078125 0l0 -22.90625l4.5 0l9.375 15.296875l0 -15.296875l4.296875 0l0 22.90625l-4.640625 0l-9.234375 -14.9375l0 14.9375l-4.296875 0zm23.0625 0l0 -22.90625l16.984375 0l0 3.875l-12.359375 0l0 5.078125l11.5 0l0 3.859375l-11.5 0l0 6.234375l12.796875 0l0 3.859375l-17.421875 0z" fill-rule="nonzero"></path><path fill="#ff0000" d="m735.1239 384.89374q-1.375 -1.75 -2.328125 -4.078125q-0.953125 -2.34375 -0.953125 -4.84375q0 -2.21875 0.703125 -4.234375q0.84375 -2.34375 2.578125 -4.671875l1.203125 0q-1.125 1.921875 -1.484375 2.75q-0.5625 1.28125 -0.890625 2.671875q-0.40625 1.734375 -0.40625 3.484375q0 4.46875 2.78125 8.921875l-1.203125 0zm9.7752075 -7.171875l1.71875 0.21875q-0.40625 1.5 -1.515625 2.34375q-1.09375 0.828125 -2.8125 0.828125q-2.15625 0 -3.421875 -1.328125q-1.265625 -1.328125 -1.265625 -3.734375q0 -2.484375 1.265625 -3.859375q1.28125 -1.375 3.328125 -1.375q1.984375 0 3.234375 1.34375q1.25 1.34375 1.25 3.796875q0 0.140625 -0.015625 0.4375l-7.34375 0q0.09375 1.625 0.921875 2.484375q0.828125 0.859375 2.0625 0.859375q0.90625 0 1.546875 -0.46875q0.65625 -0.484375 1.046875 -1.546875zm-5.484375 -2.703125l5.5 0q-0.109375 -1.234375 -0.625 -1.859375q-0.796875 -0.96875 -2.078125 -0.96875q-1.140625 0 -1.9375 0.78125q-0.78125 0.765625 -0.859375 2.046875zm9.578796 5.875l0 -1.90625l1.90625 0l0 1.90625l-1.90625 0zm4.4177246 0.8125l1.609375 0.25q0.109375 0.75 0.578125 1.09375q0.609375 0.453125 1.6875 0.453125q1.171875 0 1.796875 -0.46875q0.625 -0.453125 0.859375 -1.28125q0.125 -0.515625 0.109375 -2.15625q-1.09375 1.296875 -2.71875 1.296875q-2.03125 0 -3.15625 -1.46875q-1.109375 -1.46875 -1.109375 -3.515625q0 -1.40625 0.515625 -2.59375q0.515625 -1.203125 1.484375 -1.84375q0.96875 -0.65625 2.265625 -0.65625q1.75 0 2.875 1.40625l0 -1.1875l1.546875 0l0 8.515625q0 2.3125 -0.46875 3.265625q-0.46875 0.96875 -1.484375 1.515625q-1.015625 0.5625 -2.5 0.5625q-1.765625 0 -2.859375 -0.796875q-1.078125 -0.796875 -1.03125 -2.390625zm1.375 -5.921875q0 1.953125 0.765625 2.84375q0.78125 0.890625 1.9375 0.890625q1.140625 0 1.921875 -0.890625q0.78125 -0.890625 0.78125 -2.78125q0 -1.8125 -0.8125 -2.71875q-0.796875 -0.921875 -1.921875 -0.921875q-1.109375 0 -1.890625 0.90625q-0.78125 0.890625 -0.78125 2.671875zm9.766296 5.109375l0 -1.90625l1.90625 0l0 1.90625l-1.90625 0z" fill-rule="nonzero"></path><path fill="#ff0000" d="m781.9192 380.55q-0.625 0.234375 -1.296875 0.34375q-0.65625 0.125 -1.359375 0.125q-2.21875 0 -3.40625 -1.1875q-1.1875 -1.203125 -1.1875 -3.5q0 -1.109375 0.34375 -2.0q0.34375 -0.90625 0.953125 -1.546875q0.625 -0.640625 1.484375 -0.984375q0.875 -0.34375 1.90625 -0.34375q0.734375 0 1.359375 0.109375q0.625 0.09375 1.203125 0.3125l0 1.546875q-0.59375 -0.3125 -1.234375 -0.453125q-0.625 -0.15625 -1.28125 -0.15625q-0.625 0 -1.1875 0.25q-0.546875 0.234375 -0.96875 0.6875q-0.40625 0.4375 -0.65625 1.078125q-0.234375 0.640625 -0.234375 1.4375q0 1.6875 0.8125 2.53125q0.828125 0.84375 2.28125 0.84375q0.65625 0 1.265625 -0.140625q0.625 -0.15625 1.203125 -0.453125l0 1.5zm8.601013 4.234375q-4.28125 -3.953125 -4.28125 -8.75q0 -1.125 0.21875 -2.234375q0.234375 -1.125 0.734375 -2.25q0.515625 -1.125 1.34375 -2.234375q0.828125 -1.125 2.015625 -2.234375l0.9375 0.953125q-3.59375 3.546875 -3.59375 7.875q0 2.15625 0.90625 4.140625q0.90625 1.984375 2.6875 3.75l-0.96875 0.984375zm6.585449 -17.703125q4.265625 3.953125 4.265625 8.8125q0 1.0 -0.203125 2.078125q-0.203125 1.078125 -0.703125 2.203125q-0.484375 1.125 -1.3125 2.28125q-0.828125 1.171875 -2.09375 2.328125l-0.9375 -0.953125q1.8125 -1.78125 2.703125 -3.734375q0.890625 -1.953125 0.890625 -4.078125q0 -4.421875 -3.59375 -7.953125l0.984375 -0.984375z" fill-rule="nonzero"></path><path fill="#ff0000" d="m806.31604 384.89374l-1.1875 0q2.765625 -4.453125 2.765625 -8.921875q0 -1.734375 -0.390625 -3.453125q-0.328125 -1.390625 -0.890625 -2.671875q-0.359375 -0.84375 -1.484375 -2.78125l1.1875 0q1.75 2.328125 2.578125 4.671875q0.71875 2.015625 0.71875 4.234375q0 2.5 -0.96875 4.84375q-0.953125 2.328125 -2.328125 4.078125z" fill-rule="nonzero"></path><path fill="#000000" fill-opacity="0.0" d="m12.863517 325.39764l0 0c0 -5.2040405 4.2187147 -9.42276 9.422761 -9.42276l614.25684 0c2.4990845 0 4.895813 0.99276733 6.662903 2.7598572c1.7671509 1.7671204 2.7598877 4.163849 2.7598877 6.662903l0 37.68991c0 5.2040405 -4.218689 9.42276 -9.422791 9.42276l-614.25684 0c-5.2040462 0 -9.422761 -4.2187195 -9.422761 -9.42276z" fill-rule="evenodd"></path><path stroke="#ff0000" stroke-width="4.0" stroke-linejoin="round" stroke-linecap="butt" d="m12.863517 325.39764l0 0c0 -5.2040405 4.2187147 -9.42276 9.422761 -9.42276l614.25684 0c2.4990845 0 4.895813 0.99276733 6.662903 2.7598572c1.7671509 1.7671204 2.7598877 4.163849 2.7598877 6.662903l0 37.68991c0 5.2040405 -4.218689 9.42276 -9.422791 9.42276l-614.25684 0c-5.2040462 0 -9.422761 -4.2187195 -9.422761 -9.42276z" fill-rule="evenodd"></path></g></svg>

